<?xml version="1.0" encoding="UTF-8"?>
<!-- This file is generated by npm run build:icons -->
<svg xmlns="http://www.w3.org/2000/svg" xmlns:xlink="http://www.w3.org/1999/xlink" width="0" height="0">
<defs>
<symbol viewBox="0 0 24 24" fill="none" stroke="currentColor" stroke-width="2" stroke-linecap="round" stroke-linejoin="round" id="arrow-left-from-line">
  <path d="m9 6-6 6 6 6" ></path>
  <path d="M3 12h14" ></path>
  <path d="M21 19V5" ></path>
</symbol>
<symbol viewBox="0 0 24 24" fill="none" stroke="currentColor" stroke-width="2" stroke-linecap="round" stroke-linejoin="round" id="arrow-left">
  <path d="m12 19-7-7 7-7" ></path>
  <path d="M19 12H5" ></path>
</symbol>
<symbol viewBox="0 0 24 24" fill="none" stroke="currentColor" stroke-width="2" stroke-linecap="round" stroke-linejoin="round" id="arrow-right-from-line">
  <path d="M3 5v14" ></path>
  <path d="M21 12H7" ></path>
  <path d="m15 18 6-6-6-6" ></path>
</symbol>
<symbol viewBox="0 0 24 24" fill="none" stroke="currentColor" stroke-width="2" stroke-linecap="round" stroke-linejoin="round" id="circle-check">
  <circle cx="12" cy="12" r="10" ></circle>
  <path d="m9 12 2 2 4-4" ></path>
</symbol>
<symbol viewBox="0 0 24 24" fill="none" stroke="currentColor" stroke-width="2" stroke-linecap="round" stroke-linejoin="round" id="circle-minus">
  <circle cx="12" cy="12" r="10" ></circle>
  <path d="M8 12h8" ></path>
</symbol>
<symbol viewBox="0 0 24 24" fill="none" stroke="currentColor" stroke-width="2" stroke-linecap="round" stroke-linejoin="round" id="dessert">
  <circle cx="12" cy="4" r="2" ></circle>
  <path d="M10.2 3.2C5.5 4 2 8.1 2 13a2 2 0 0 0 4 0v-1a2 2 0 0 1 4 0v4a2 2 0 0 0 4 0v-4a2 2 0 0 1 4 0v1a2 2 0 0 0 4 0c0-4.9-3.5-9-8.2-9.8" ></path>
  <path d="M3.2 14.8a9 9 0 0 0 17.6 0" ></path>
</symbol>
<symbol viewBox="0 0 24 24" fill="none" stroke="currentColor" stroke-width="2" stroke-linecap="round" stroke-linejoin="round" id="dollar-sign">
  <line x1="12" x2="12" y1="2" y2="22" ></line>
  <path d="M17 5H9.5a3.5 3.5 0 0 0 0 7h5a3.5 3.5 0 0 1 0 7H6" ></path>
</symbol>
<symbol viewBox="0 0 24 24" fill="none" stroke="currentColor" stroke-width="2" stroke-linecap="round" stroke-linejoin="round" id="ice-cream-cone">
  <path d="m7 11 4.08 10.35a1 1 0 0 0 1.84 0L17 11" ></path>
  <path d="M17 7A5 5 0 0 0 7 7" ></path>
  <path d="M17 7a2 2 0 0 1 0 4H7a2 2 0 0 1 0-4" ></path>
</symbol>
<symbol viewBox="0 0 24 24" fill="none" stroke="currentColor" stroke-width="2" stroke-linecap="round" stroke-linejoin="round" id="info">
  <circle cx="12" cy="12" r="10" ></circle>
  <path d="M12 16v-4" ></path>
  <path d="M12 8h.01" ></path>
</symbol>
<symbol viewBox="0 0 24 24" fill="none" stroke="currentColor" stroke-width="2" stroke-linecap="round" stroke-linejoin="round" id="log-out">
  <path d="M9 21H5a2 2 0 0 1-2-2V5a2 2 0 0 1 2-2h4" ></path>
  <polyline points="16 17 21 12 16 7" ></polyline>
  <line x1="21" x2="9" y1="12" y2="12" ></line>
</symbol>
<symbol viewBox="0 0 24 24" fill="none" stroke="currentColor" stroke-width="2" stroke-linecap="round" stroke-linejoin="round" id="menu">
  <line x1="4" x2="20" y1="12" y2="12" ></line>
  <line x1="4" x2="20" y1="6" y2="6" ></line>
  <line x1="4" x2="20" y1="18" y2="18" ></line>
</symbol>
<symbol viewBox="0 0 24 24" fill="none" stroke="currentColor" stroke-width="2" stroke-linecap="round" stroke-linejoin="round" id="plus">
  <path d="M5 12h14" ></path>
  <path d="M12 5v14" ></path>
</symbol>
<symbol viewBox="0 0 24 24" fill="none" stroke="currentColor" stroke-width="2" stroke-linecap="round" stroke-linejoin="round" id="settings">
  <path d="M12.22 2h-.44a2 2 0 0 0-2 2v.18a2 2 0 0 1-1 1.73l-.43.25a2 2 0 0 1-2 0l-.15-.08a2 2 0 0 0-2.73.73l-.22.38a2 2 0 0 0 .73 2.73l.15.1a2 2 0 0 1 1 1.72v.51a2 2 0 0 1-1 1.74l-.15.09a2 2 0 0 0-.73 2.73l.22.38a2 2 0 0 0 2.73.73l.15-.08a2 2 0 0 1 2 0l.43.25a2 2 0 0 1 1 1.73V20a2 2 0 0 0 2 2h.44a2 2 0 0 0 2-2v-.18a2 2 0 0 1 1-1.73l.43-.25a2 2 0 0 1 2 0l.15.08a2 2 0 0 0 2.73-.73l.22-.39a2 2 0 0 0-.73-2.73l-.15-.08a2 2 0 0 1-1-1.74v-.5a2 2 0 0 1 1-1.74l.15-.09a2 2 0 0 0 .73-2.73l-.22-.38a2 2 0 0 0-2.73-.73l-.15.08a2 2 0 0 1-2 0l-.43-.25a2 2 0 0 1-1-1.73V4a2 2 0 0 0-2-2z" ></path>
  <circle cx="12" cy="12" r="3" ></circle>
</symbol>
<symbol viewBox="0 0 24 24" fill="none" stroke="currentColor" stroke-width="2" stroke-linecap="round" stroke-linejoin="round" id="shopping-bag">
  <path d="M6 2 3 6v14a2 2 0 0 0 2 2h14a2 2 0 0 0 2-2V6l-3-4Z" ></path>
  <path d="M3 6h18" ></path>
  <path d="M16 10a4 4 0 0 1-8 0" ></path>
</symbol>
<symbol viewBox="0 0 24 24" fill="none" stroke="currentColor" stroke-width="2" stroke-linecap="round" stroke-linejoin="round" id="shopping-cart">
  <circle cx="8" cy="21" r="1" ></circle>
  <circle cx="19" cy="21" r="1" ></circle>
  <path d="M2.05 2.05h2l2.66 12.42a2 2 0 0 0 2 1.58h9.78a2 2 0 0 0 1.95-1.57l1.65-7.43H5.12" ></path>
</symbol>
<symbol viewBox="0 0 24 24" fill="none" stroke="currentColor" stroke-width="2" stroke-linecap="round" stroke-linejoin="round" id="trash">
  <path d="M3 6h18" ></path>
  <path d="M19 6v14c0 1-1 2-2 2H7c-1 0-2-1-2-2V6" ></path>
  <path d="M8 6V4c0-1 1-2 2-2h4c1 0 2 1 2 2v2" ></path>
</symbol>
<symbol viewBox="0 0 24 24" fill="none" stroke="currentColor" stroke-width="2" stroke-linecap="round" stroke-linejoin="round" id="user-plus">
  <path d="M16 21v-2a4 4 0 0 0-4-4H6a4 4 0 0 0-4 4v2" ></path>
  <circle cx="9" cy="7" r="4" ></circle>
  <line x1="19" x2="19" y1="8" y2="14" ></line>
  <line x1="22" x2="16" y1="11" y2="11" ></line>
</symbol>
<symbol viewBox="0 0 24 24" fill="none" stroke="currentColor" stroke-width="2" stroke-linecap="round" stroke-linejoin="round" id="x">
  <path d="M18 6 6 18" ></path>
  <path d="m6 6 12 12" ></path>
</symbol>
</defs>
</svg>
